  0
SECTION
  2
HEADER
  9
$ACADVER
  1
AC1006
  9
$EXTMIN
 10
0.000000
 20
0.000000
 30
0.000000
  9
$EXTMAX
 10
1938.000000
 20
1750.000000
 30
0.000000
  0
ENDSEC
  0
SECTION
  2
ENTITIES
  0
POLYLINE
  8
0
 66
1
 70
1
  0
VERTEX
  8
0
 10
958.347877
 20
1670.644275
 42
0.033248
  0
VERTEX
  8
0
 10
952.150021
 20
1668.616806
 42
0.033231
  0
VERTEX
  8
0
 10
946.274511
 20
1665.785412
 42
0.033538
  0
VERTEX
  8
0
 10
940.877353
 20
1662.229661
 42
0.035383
  0
VERTEX
  8
0
 10
936.105997
 20
1658.042015
 42
0.064488
  0
VERTEX
  8
0
 10
929.967977
 20
1649.983345
 42
0.000159
  0
VERTEX
  8
0
 10
857.779387
 20
1524.430950
 42
0.000517
  0
VERTEX
  8
0
 10
745.738349
 20
1328.954914
 42
0.000058
  0
VERTEX
  8
0
 10
491.060147
 20
883.436018
 42
0.000087
  0
VERTEX
  8
0
 10
322.428736
 20
588.244223
 42
0.000143
  0
VERTEX
  8
0
 10
180.144063
 20
338.906205
 42
0.000005
  0
VERTEX
  8
0
 10
51.574749
 20
113.446856
 42
0.038265
  0
VERTEX
  8
0
 10
49.708165
 20
109.500000
 42
0.048000
  0
VERTEX
  8
0
 10
48.156673
 20
103.879601
 42
0.026661
  0
VERTEX
  8
0
 10
47.303997
 20
96.814232
 42
0.026655
  0
VERTEX
  8
0
 10
47.207866
 20
89.691069
 42
0.047570
  0
VERTEX
  8
0
 10
47.995050
 20
83.889906
 42
0.068213
  0
VERTEX
  8
0
 10
52.612033
 20
71.849042
 42
0.066827
  0
VERTEX
  8
0
 10
60.323367
 20
61.401074
 42
0.066901
  0
VERTEX
  8
0
 10
70.508595
 20
53.366279
 42
0.068628
  0
VERTEX
  8
0
 10
82.368392
 20
48.390125
 42
0.065145
  0
VERTEX
  8
0
 10
94.057536
 20
46.860432
 42
0.000006
  0
VERTEX
  8
0
 10
969.015725
 20
46.854203
 42
0.000006
  0
VERTEX
  8
0
 10
1843.973392
 20
46.868760
 42
0.065139
  0
VERTEX
  8
0
 10
1855.663598
 20
48.398564
 42
0.029801
  0
VERTEX
  8
0
 10
1861.738090
 20
50.410241
 42
0.038384
  0
VERTEX
  8
0
 10
1867.015302
 20
52.999338
 42
0.037251
  0
VERTEX
  8
0
 10
1871.955120
 20
56.432139
 42
0.025709
  0
VERTEX
  8
0
 10
1877.018180
 20
60.992298
 42
0.046733
  0
VERTEX
  8
0
 10
1883.659527
 20
68.993328
 42
0.058848
  0
VERTEX
  8
0
 10
1888.118007
 20
77.518813
 42
0.059393
  0
VERTEX
  8
0
 10
1890.440529
 20
86.782922
 42
0.048895
  0
VERTEX
  8
0
 10
1890.739066
 20
96.976473
 42
0.018499
  0
VERTEX
  8
0
 10
1890.356509
 20
100.591649
 42
0.018021
  0
VERTEX
  8
0
 10
1889.705526
 20
104.200675
 42
0.018685
  0
VERTEX
  8
0
 10
1888.830451
 20
107.601347
 42
0.025438
  0
VERTEX
  8
0
 10
1887.774164
 20
110.586567
 42
0.032107
  0
VERTEX
  8
0
 10
1882.094599
 20
122.191259
 42
0.000003
  0
VERTEX
  8
0
 10
1446.495427
 20
884.136988
 42
0.000003
  0
VERTEX
  8
0
 10
1010.161204
 20
1647.346624
 42
0.041802
  0
VERTEX
  8
0
 10
1004.520134
 20
1655.540734
 42
0.042788
  0
VERTEX
  8
0
 10
1000.636182
 20
1659.530200
 42
0.029540
  0
VERTEX
  8
0
 10
995.631380
 20
1663.368234
 42
0.028985
  0
VERTEX
  8
0
 10
990.069332
 20
1666.681103
 42
0.035133
  0
VERTEX
  8
0
 10
984.500000
 20
1669.095100
 42
0.042064
  0
VERTEX
  8
0
 10
978.413961
 20
1670.679532
 42
0.027867
  0
VERTEX
  8
0
 10
971.237337
 20
1671.507680
 42
0.028086
  0
VERTEX
  8
0
 10
964.146421
 20
1671.529026
 42
0.049173
  0
SEQEND
  0
POLYLINE
  8
0
 66
1
 70
1
  0
VERTEX
  8
0
 10
1230.250000
 20
1073.616883
 42
-0.000058
  0
VERTEX
  8
0
 10
1330.233765
 20
898.603153
 42
-0.000097
  0
VERTEX
  8
0
 10
1414.404687
 20
751.162213
 42
-0.000001
  0
VERTEX
  8
0
 10
1490.865513
 20
617.166041
 42
-0.130365
  0
VERTEX
  8
0
 10
1491.000000
 20
616.658997
 42
-0.413192
  0
VERTEX
  8
0
 10
1490.729486
 20
616.387538
 42
-0.000012
  0
VERTEX
  8
0
 10
1434.778303
 20
616.193580
 42
-0.000538
  0
VERTEX
  8
0
 10
1372.996805
 20
616.047354
 42
-0.000323
  0
VERTEX
  8
0
 10
1299.606989
 20
616.000000
 42
-0.000190
  0
VERTEX
  8
0
 10
1187.488400
 20
616.042658
 42
-0.001812
  0
VERTEX
  8
0
 10
1139.576560
 20
616.252780
 42
-0.000569
  0
VERTEX
  8
0
 10
1109.071395
 20
616.531862
 42
-0.307721
  0
VERTEX
  8
0
 10
1107.623848
 20
617.537854
 42
-0.078489
  0
VERTEX
  8
0
 10
1107.491452
 20
618.159774
 42
-0.091492
  0
VERTEX
  8
0
 10
1107.569304
 20
618.758128
 42
-0.102093
  0
VERTEX
  8
0
 10
1107.842088
 20
619.239746
 42
-0.124960
  0
VERTEX
  8
0
 10
1108.266859
 20
619.532437
 42
-0.031006
  0
VERTEX
  8
0
 10
1109.275641
 20
619.836461
 42
-0.000043
  0
VERTEX
  8
0
 10
1128.807851
 20
624.423033
 42
-0.000366
  0
VERTEX
  8
0
 10
1150.701120
 20
629.545131
 42
-0.000226
  0
VERTEX
  8
0
 10
1176.461995
 20
635.539911
 42
0.000527
  0
VERTEX
  8
0
 10
1202.173597
 20
641.539535
 42
0.000867
  0
VERTEX
  8
0
 10
1223.905775
 20
646.674496
 42
0.000057
  0
VERTEX
  8
0
 10
1243.441951
 20
651.328717
 42
0.138732
  0
VERTEX
  8
0
 10
1243.940996
 20
651.607663
 42
0.258147
  0
VERTEX
  8
0
 10
1244.148708
 20
652.329636
 42
0.001484
  0
VERTEX
  8
0
 10
1242.501630
 20
659.424926
 42
0.005535
  0
VERTEX
  8
0
 10
1240.450196
 20
667.730943
 42
0.003133
  0
VERTEX
  8
0
 10
1237.790565
 20
677.750000
 42
0.030479
  0
VERTEX
  8
0
 10
1237.368919
 20
678.994457
 42
0.042013
  0
VERTEX
  8
0
 10
1236.833009
 20
680.045312
 42
0.048423
  0
VERTEX
  8
0
 10
1236.268682
 20
680.784050
 42
0.208360
  0
VERTEX
  8
0
 10
1235.772967
 20
681.000000
 42
0.072655
  0
VERTEX
  8
0
 10
1234.879021
 20
680.869411
 42
0.000074
  0
VERTEX
  8
0
 10
1215.647335
 20
675.125000
 42
0.000731
  0
VERTEX
  8
0
 10
1194.155783
 20
668.667873
 42
0.000449
  0
VERTEX
  8
0
 10
1168.851233
 20
661.000000
 42
-0.000329
  0
VERTEX
  8
0
 10
1143.570884
 20
653.332873
 42
-0.000541
  0
VERTEX
  8
0
 10
1122.158462
 20
646.879486
 42
-0.000038
  0
VERTEX
  8
0
 10
1102.902161
 20
641.100222
 42
-0.077916
  0
VERTEX
  8
0
 10
1102.281262
 20
641.015271
 42
-0.263620
  0
VERTEX
  8
0
 10
1101.874740
 20
641.256228
 42
-0.009022
  0
VERTEX
  8
0
 10
1100.950336
 20
642.939592
 42
-0.014818
  0
VERTEX
  8
0
 10
1099.920637
 20
645.046934
 42
-0.009548
  0
VERTEX
  8
0
 10
1098.847541
 20
647.544708
 42
0.000000
  0
VERTEX
  8
0
 10
1096.195082
 20
654.058876
 42
0.000000
  0
VERTEX
  8
0
 10
1100.161403
 20
656.082342
 42
0.003713
  0
VERTEX
  8
0
 10
1111.295715
 20
661.867246
 42
0.000018
  0
VERTEX
  8
0
 10
1225.324351
 20
722.196291
 42
0.000001
  0
VERTEX
  8
0
 10
1344.270506
 20
785.132739
 42
0.066748
  0
VERTEX
  8
0
 10
1344.872821
 20
785.562709
 42
0.352360
  0
VERTEX
  8
0
 10
1345.053906
 20
786.847915
 42
0.000821
  0
VERTEX
  8
0
 10
1334.603660
 20
804.312602
 42
0.000895
  0
VERTEX
  8
0
 10
1324.125182
 20
821.688833
 42
0.283309
  0
VERTEX
  8
0
 10
1322.752401
 20
822.393444
 42
0.120046
  0
VERTEX
  8
0
 10
1321.724439
 20
822.056336
 42
0.000043
  0
VERTEX
  8
0
 10
1287.040936
 20
800.508170
 42
0.000701
  0
VERTEX
  8
0
 10
1248.550420
 20
776.515335
 42
0.000426
  0
VERTEX
  8
0
 10
1203.097428
 20
748.040014
 42
-0.000736
  0
VERTEX
  8
0
 10
1157.688722
 20
719.631615
 42
-0.001225
  0
VERTEX
  8
0
 10
1119.348076
 20
695.853854
 42
-0.000061
  0
VERTEX
  8
0
 10
1084.774320
 20
674.535195
 42
-0.374651
  0
VERTEX
  8
0
 10
1084.103408
 20
674.646570
 42
-0.003622
  0
VERTEX
  8
0
 10
1083.650412
 20
675.204328
 42
-0.000290
  0
VERTEX
  8
0
 10
1082.466411
 20
676.685682
 42
-0.000392
  0
VERTEX
  8
0
 10
1081.056386
 20
678.454765
 42
-0.000301
  0
VERTEX
  8
0
 10
1079.518478
 20
680.389793
 42
0.000000
  0
VERTEX
  8
0
 10
1075.637000
 20
685.279587
 42
0.000000
  0
VERTEX
  8
0
 10
1079.770390
 20
688.889793
 42
0.007762
  0
VERTEX
  8
0
 10
1082.748518
 20
691.573587
 42
0.000179
  0
VERTEX
  8
0
 10
1096.653316
 20
704.510129
 42
0.000399
  0
VERTEX
  8
0
 10
1112.925047
 20
719.683894
 42
0.000270
  0
VERTEX
  8
0
 10
1131.439845
 20
736.995753
 42
0.000000
  0
VERTEX
  8
0
 10
1178.975910
 20
781.491505
 42
0.000000
  0
VERTEX
  8
0
 10
1168.255009
 20
792.245753
 42
0.002818
  0
VERTEX
  8
0
 10
1164.098653
 20
796.368307
 42
0.004491
  0
VERTEX
  8
0
 10
1160.493650
 20
799.840940
 42
0.001139
  0
VERTEX
  8
0
 10
1157.321182
 20
802.828792
 42
0.190548
  0
VERTEX
  8
0
 10
1156.888242
 20
803.000000
 42
0.205739
  0
VERTEX
  8
0
 10
1156.444316
 20
802.809260
 42
0.000060
  0
VERTEX
  8
0
 10
1142.413520
 20
788.018750
 42
0.001045
  0
VERTEX
  8
0
 10
1126.864239
 20
771.554797
 42
0.000632
  0
VERTEX
  8
0
 10
1108.519553
 20
752.000000
 42
-0.000419
  0
VERTEX
  8
0
 10
1090.190181
 20
732.444799
 42
-0.000694
  0
VERTEX
  8
0
 10
1074.689648
 20
715.981250
 42
-0.000027
  0
VERTEX
  8
0
 10
1060.663992
 20
701.127188
 42
-0.206362
  0
VERTEX
  8
0
 10
1060.368947
 20
701.000000
 42
-0.174567
  0
VERTEX
  8
0
 10
1059.113745
 20
701.452009
 42
-0.004714
  0
VERTEX
  8
0
 10
1054.568250
 20
705.286316
 42
-0.003503
  0
VERTEX
  8
0
 10
1049.994740
 20
709.274716
 42
-0.290334
  0
VERTEX
  8
0
 10
1049.746467
 20
710.133278
 42
-0.068941
  0
VERTEX
  8
0
 10
1050.038188
 20
710.784247
 42
-0.000010
  0
VERTEX
  8
0
 10
1071.792236
 20
745.560916
 42
-0.000266
  0
VERTEX
  8
0
 10
1095.883182
 20
784.026028
 42
-0.000161
  0
VERTEX
  8
0
 10
1124.449789
 20
829.550669
 42
0.000000
  0
VERTEX
  8
0
 10
1198.906643
 20
948.122533
 42
0.000000
  0
VERTEX
  8
0
 10
1195.221723
 20
950.311266
 42
0.003054
  0
VERTEX
  8
0
 10
1182.044415
 20
958.029706
 42
0.005471
  0
VERTEX
  8
0
 10
1171.113824
 20
964.184299
 42
0.001296
  0
VERTEX
  8
0
 10
1161.711118
 20
969.312244
 42
0.335334
  0
VERTEX
  8
0
 10
1160.836571
 20
969.179701
 42
0.071419
  0
VERTEX
  8
0
 10
1160.383557
 20
968.559276
 42
0.000013
  0
VERTEX
  8
0
 10
1141.197798
 20
932.421537
 42
0.000298
  0
VERTEX
  8
0
 10
1119.983075
 20
892.402093
 42
0.000180
  0
VERTEX
  8
0
 10
1094.912797
 20
845.000000
 42
-0.000016
  0
VERTEX
  8
0
 10
1069.877819
 20
797.626929
 42
-0.000026
  0
VERTEX
  8
0
 10
1048.776295
 20
757.705175
 42
-0.000000
  0
VERTEX
  8
0
 10
1029.616058
 20
721.460799
 42
-0.020014
  0
VERTEX
  8
0
 10
1029.494551
 20
721.251659
 42
-0.358364
  0
VERTEX
  8
0
 10
1029.190199
 20
721.152068
 42
-0.000480
  0
VERTEX
  8
0
 10
1023.009057
 20
723.570376
 42
-0.001232
  0
VERTEX
  8
0
 10
1017.083271
 20
725.912196
 42
-0.094109
  0
VERTEX
  8
0
 10
1016.225634
 20
726.457667
 42
-0.284024
  0
VERTEX
  8
0
 10
1016.157435
 20
726.710793
 42
-0.000026
  0
VERTEX
  8
0
 10
1021.912903
 20
745.973325
 42
-0.000764
  0
VERTEX
  8
0
 10
1028.314831
 20
767.276655
 42
-0.000460
  0
VERTEX
  8
0
 10
1035.971830
 20
792.532028
 42
0.000288
  0
VERTEX
  8
0
 10
1043.665388
 20
817.876668
 42
0.000464
  0
VERTEX
  8
0
 10
1050.185907
 20
839.473891
 42
0.000065
  0
VERTEX
  8
0
 10
1055.963049
 20
858.682374
 42
0.032751
  0
VERTEX
  8
0
 10
1056.246196
 20
859.910761
 42
0.318885
  0
VERTEX
  8
0
 10
1055.776165
 20
860.868315
 42
0.033655
  0
VERTEX
  8
0
 10
1053.381174
 20
861.966176
 42
0.021131
  0
VERTEX
  8
0
 10
1049.223877
 20
863.345135
 42
0.004316
  0
VERTEX
  8
0
 10
1041.754365
 20
865.407464
 42
0.002996
  0
VERTEX
  8
0
 10
1036.078158
 20
866.885683
 42
0.004897
  0
VERTEX
  8
0
 10
1031.247526
 20
868.062597
 42
0.001037
  0
VERTEX
  8
0
 10
1027.017896
 20
869.040053
 42
0.296360
  0
VERTEX
  8
0
 10
1026.693038
 20
868.921032
 42
0.103499
  0
VERTEX
  8
0
 10
1026.515059
 20
868.540130
 42
0.000022
  0
VERTEX
  8
0
 10
1021.841872
 20
848.653496
 42
0.000471
  0
VERTEX
  8
0
 10
1016.685546
 20
826.613322
 42
0.000285
  0
VERTEX
  8
0
 10
1010.621741
 20
800.516401
 42
-0.000218
  0
VERTEX
  8
0
 10
1004.564882
 20
774.433394
 42
-0.000361
  0
VERTEX
  8
0
 10
999.430700
 20
752.439339
 42
-0.000010
  0
VERTEX
  8
0
 10
994.766941
 20
732.527262
 42
-0.139726
  0
VERTEX
  8
0
 10
994.649472
 20
732.316138
 42
-0.227104
  0
VERTEX
  8
0
 10
994.447786
 20
732.245075
 42
-0.001365
  0
VERTEX
  8
0
 10
992.448131
 20
732.467134
 42
-0.005238
  0
VERTEX
  8
0
 10
990.148555
 20
732.753289
 42
-0.003267
  0
VERTEX
  8
0
 10
987.459797
 20
733.134419
 42
0.000000
  0
VERTEX
  8
0
 10
980.486787
 20
734.169363
 42
0.000000
  0
VERTEX
  8
0
 10
985.125652
 20
860.334682
 42
-0.000072
  0
VERTEX
  8
0
 10
986.949419
 20
909.741646
 42
-0.000102
  0
VERTEX
  8
0
 10
988.590103
 20
953.771750
 42
-0.000058
  0
VERTEX
  8
0
 10
989.987061
 20
990.940224
 42
-0.001434
  0
VERTEX
  8
0
 10
990.405375
 20
1001.250000
 42
0.000000
  0
VERTEX
  8
0
 10
991.046234
 20
1016.000000
 42
0.000000
  0
VERTEX
  8
0
 10
969.000000
 20
1016.000000
 42
0.000000
  0
VERTEX
  8
0
 10
946.953766
 20
1016.000000
 42
0.000000
  0
VERTEX
  8
0
 10
947.594625
 20
1001.250000
 42
-0.001434
  0
VERTEX
  8
0
 10
948.012939
 20
990.940224
 42
-0.000058
  0
VERTEX
  8
0
 10
949.409897
 20
953.771750
 42
-0.000102
  0
VERTEX
  8
0
 10
951.050581
 20
909.741646
 42
-0.000072
  0
VERTEX
  8
0
 10
952.874348
 20
860.334682
 42
0.000000
  0
VERTEX
  8
0
 10
957.513213
 20
734.169363
 42
0.000000
  0
VERTEX
  8
0
 10
950.540203
 20
733.134419
 42
-0.003267
  0
VERTEX
  8
0
 10
947.851445
 20
732.753289
 42
-0.005238
  0
VERTEX
  8
0
 10
945.551869
 20
732.467134
 42
-0.001365
  0
VERTEX
  8
0
 10
943.552214
 20
732.245075
 42
-0.227104
  0
VERTEX
  8
0
 10
943.350528
 20
732.316138
 42
-0.139726
  0
VERTEX
  8
0
 10
943.233059
 20
732.527262
 42
-0.000010
  0
VERTEX
  8
0
 10
938.569300
 20
752.439339
 42
-0.000361
  0
VERTEX
  8
0
 10
933.435118
 20
774.433394
 42
-0.000218
  0
VERTEX
  8
0
 10
927.378259
 20
800.516401
 42
0.000271
  0
VERTEX
  8
0
 10
921.315458
 20
826.612364
 42
0.000448
  0
VERTEX
  8
0
 10
916.162282
 20
848.649342
 42
0.000020
  0
VERTEX
  8
0
 10
911.491500
 20
868.539466
 42
0.102127
  0
VERTEX
  8
0
 10
911.321103
 20
868.906890
 42
0.298212
  0
VERTEX
  8
0
 10
911.008774
 20
869.022097
 42
0.000964
  0
VERTEX
  8
0
 10
906.772449
 20
868.038322
 42
0.004724
  0
VERTEX
  8
0
 10
901.940424
 20
866.858126
 42
0.002887
  0
VERTEX
  8
0
 10
896.259777
 20
865.378685
 42
0.004356
  0
VERTEX
  8
0
 10
888.824028
 20
863.326701
 42
0.020849
  0
VERTEX
  8
0
 10
884.647149
 20
861.944085
 42
0.032366
  0
VERTEX
  8
0
 10
882.221518
 20
860.843170
 42
0.321041
  0
VERTEX
  8
0
 10
881.753804
 20
859.896124
 42
0.032393
  0
VERTEX
  8
0
 10
882.035417
 20
858.678741
 42
0.000063
  0
VERTEX
  8
0
 10
887.814093
 20
839.469591
 42
0.000455
  0
VERTEX
  8
0
 10
894.334599
 20
817.875656
 42
0.000282
  0
VERTEX
  8
0
 10
902.028170
 20
792.532028
 42
-0.000460
  0
VERTEX
  8
0
 10
909.685169
 20
767.276655
 42
-0.000764
  0
VERTEX
  8
0
 10
916.087097
 20
745.973325
 42
-0.000026
  0
VERTEX
  8
0
 10
921.842565
 20
726.710793
 42
-0.284024
  0
VERTEX
  8
0
 10
921.774366
 20
726.457667
 42
-0.094117
  0
VERTEX
  8
0
 10
920.915538
 20
725.911458
 42
-0.001236
  0
VERTEX
  8
0
 10
914.990328
 20
723.570145
 42
-0.000482
  0
VERTEX
  8
0
 10
908.809665
 20
721.152398
 42
-0.356828
  0
VERTEX
  8
0
 10
908.503562
 20
721.251659
 42
-0.021362
  0
VERTEX
  8
0
 10
908.381084
 20
721.461167
 42
-0.000000
  0
VERTEX
  8
0
 10
889.220867
 20
757.705175
 42
-0.000028
  0
VERTEX
  8
0
 10
868.119343
 20
797.626931
 42
-0.000017
  0
VERTEX
  8
0
 10
843.084729
 20
845.000000
 42
0.000185
  0
VERTEX
  8
0
 10
818.014969
 20
892.401058
 42
0.000305
  0
VERTEX
  8
0
 10
796.800819
 20
932.417130
 42
0.000013
  0
VERTEX
  8
0
 10
777.613556
 20
968.554344
 42
0.074102
  0
VERTEX
  8
0
 10
777.162842
 20
969.164699
 42
0.339649
  0
VERTEX
  8
0
 10
775.740271
 20
969.353504
 42
0.000956
  0
VERTEX
  8
0
 10
758.106516
 20
959.144136
 42
0.000978
  0
VERTEX
  8
0
 10
740.526093
 20
948.874639
 42
0.318950
  0
VERTEX
  8
0
 10
739.907824
 20
947.500000
 42
0.091359
  0
VERTEX
  8
0
 10
740.296097
 20
946.519503
 42
0.000003
  0
VERTEX
  8
0
 10
807.175141
 20
839.672226
 42
0.000126
  0
VERTEX
  8
0
 10
866.443227
 20
745.038744
 42
0.001811
  0
VERTEX
  8
0
 10
887.640891
 20
711.482127
 42
-0.108126
  0
VERTEX
  8
0
 10
888.108710
 20
710.206908
 42
-0.183571
  0
VERTEX
  8
0
 10
887.856298
 20
709.113647
 42
-0.072809
  0
VERTEX
  8
0
 10
886.665424
 20
707.797218
 42
-0.007887
  0
VERTEX
  8
0
 10
883.456142
 20
705.232127
 42
-0.003238
  0
VERTEX
  8
0
 10
881.331354
 20
703.609979
 42
-0.005050
  0
VERTEX
  8
0
 10
879.478145
 20
702.243187
 42
-0.001652
  0
VERTEX
  8
0
 10
877.864604
 20
701.086222
 42
-0.155937
  0
VERTEX
  8
0
 10
877.594862
 20
701.000000
 42
-0.206464
  0
VERTEX
  8
0
 10
877.324625
 20
701.116558
 42
-0.000022
  0
VERTEX
  8
0
 10
863.299721
 20
715.981250
 42
-0.000636
  0
VERTEX
  8
0
 10
847.807278
 20
732.444732
 42
-0.000384
  0
VERTEX
  8
0
 10
829.480447
 20
752.000000
 42
0.000632
  0
VERTEX
  8
0
 10
811.135761
 20
771.554797
 42
0.001045
  0
VERTEX
  8
0
 10
795.586480
 20
788.018750
 42
0.000060
  0
VERTEX
  8
0
 10
781.555684
 20
802.809260
 42
0.205739
  0
VERTEX
  8
0
 10
781.111758
 20
803.000000
 42
0.190678
  0
VERTEX
  8
0
 10
780.678931
 20
802.828711
 42
0.001141
  0
VERTEX
  8
0
 10
777.511115
 20
799.842188
 42
0.004498
  0
VERTEX
  8
0
 10
773.911349
 20
796.370926
 42
0.002822
  0
VERTEX
  8
0
 10
769.761211
 20
792.250000
 42
0.000000
  0
VERTEX
  8
0
 10
759.056530
 20
781.500000
 42
0.000000
  0
VERTEX
  8
0
 10
805.552739
 20
738.000000
 42
0.000238
  0
VERTEX
  8
0
 10
823.741550
 20
720.999490
 42
0.000339
  0
VERTEX
  8
0
 10
839.906742
 20
705.925316
 42
0.000184
  0
VERTEX
  8
0
 10
853.596907
 20
693.185912
 42
0.005129
  0
VERTEX
  8
0
 10
857.209989
 20
689.894694
 42
0.000000
  0
VERTEX
  8
0
 10
862.371031
 20
685.289388
 42
0.000000
  0
VERTEX
  8
0
 10
858.485538
 20
680.394694
 42
-0.000251
  0
VERTEX
  8
0
 10
856.947597
 20
678.459289
 42
-0.000329
  0
VERTEX
  8
0
 10
855.540899
 20
676.693251
 42
-0.000240
  0
VERTEX
  8
0
 10
854.359951
 20
675.214085
 42
-0.003124
  0
VERTEX
  8
0
 10
853.917460
 20
674.667438
 42
-0.375475
  0
VERTEX
  8
0
 10
853.265124
 20
674.558354
 42
-0.000058
  0
VERTEX
  8
0
 10
818.708248
 20
695.878855
 42
-0.001194
  0
VERTEX
  8
0
 10
780.395021
 20
719.649579
 42
-0.000717
  0
VERTEX
  8
0
 10
735.014836
 20
748.045649
 42
0.000450
  0
VERTEX
  8
0
 10
689.582568
 20
776.508059
 42
0.000740
  0
VERTEX
  8
0
 10
651.094292
 20
800.492783
 42
0.000048
  0
VERTEX
  8
0
 10
616.435065
 20
822.015550
 42
0.118588
  0
VERTEX
  8
0
 10
615.338995
 20
822.378211
 42
0.284067
  0
VERTEX
  8
0
 10
613.884718
 20
821.639325
 42
0.001008
  0
VERTEX
  8
0
 10
603.385711
 20
804.326680
 42
0.000921
  0
VERTEX
  8
0
 10
592.919203
 20
786.916476
 42
0.361802
  0
VERTEX
  8
0
 10
593.127179
 20
785.584238
 42
0.058824
  0
VERTEX
  8
0
 10
593.561371
 20
785.284555
 42
0.000000
  0
VERTEX
  8
0
 10
711.223428
 20
723.036167
 42
0.000021
  0
VERTEX
  8
0
 10
820.257508
 20
665.358303
 42
0.001221
  0
VERTEX
  8
0
 10
840.176854
 20
654.884420
 42
-0.137106
  0
VERTEX
  8
0
 10
840.968677
 20
654.140590
 42
-0.170830
  0
VERTEX
  8
0
 10
841.173633
 20
653.158472
 42
-0.060154
  0
VERTEX
  8
0
 10
840.745180
 20
651.500049
 42
-0.006219
  0
VERTEX
  8
0
 10
839.225348
 20
647.753963
 42
-0.001224
  0
VERTEX
  8
0
 10
838.199804
 20
645.330400
 42
-0.001857
  0
VERTEX
  8
0
 10
837.294972
 20
643.228292
 42
-0.000683
  0
VERTEX
  8
0
 10
836.506698
 20
641.422286
 42
-0.046265
  0
VERTEX
  8
0
 10
836.344744
 20
641.129584
 42
-0.326287
  0
VERTEX
  8
0
 10
835.810389
 20
640.939261
 42
-0.000313
  0
VERTEX
  8
0
 10
822.675713
 20
644.848149
 42
-0.001322
  0
VERTEX
  8
0
 10
802.071649
 20
651.053341
 42
-0.000131
  0
VERTEX
  8
0
 10
752.608470
 20
666.106678
 42
0.000715
  0
VERTEX
  8
0
 10
733.768800
 20
671.816202
 42
0.001148
  0
VERTEX
  8
0
 10
717.685373
 20
676.625087
 42
0.000182
  0
VERTEX
  8
0
 10
703.419864
 20
680.849116
 42
0.072002
  0
VERTEX
  8
0
 10
702.377522
 20
681.000000
 42
0.171290
  0
VERTEX
  8
0
 10
701.815588
 20
680.801673
 42
0.065262
  0
VERTEX
  8
0
 10
701.234115
 20
680.192187
 42
0.054733
  0
VERTEX
  8
0
 10
700.722026
 20
679.302319
 42
0.043305
  0
VERTEX
  8
0
 10
700.365958
 20
678.250000
 42
-0.004759
  0
VERTEX
  8
0
 10
699.937009
 20
676.564718
 42
-0.000569
  0
VERTEX
  8
0
 10
698.948830
 20
672.848414
 42
-0.000678
  0
VERTEX
  8
0
 10
697.763225
 20
668.434011
 42
-0.000557
  0
VERTEX
  8
0
 10
696.485557
 20
663.723326
 42
0.005549
  0
VERTEX
  8
0
 10
695.301809
 20
659.179872
 42
0.008992
  0
VERTEX
  8
0
 10
694.408177
 20
655.289582
 42
0.003337
  0
VERTEX
  8
0
 10
693.732722
 20
651.976757
 42
0.312539
  0
VERTEX
  8
0
 10
693.918833
 20
651.550164
 42
0.080589
  0
VERTEX
  8
0
 10
694.477522
 20
651.318719
 42
0.000036
  0
VERTEX
  8
0
 10
714.191173
 20
646.664626
 42
0.000535
  0
VERTEX
  8
0
 10
736.115214
 20
641.515130
 42
0.000326
  0
VERTEX
  8
0
 10
762.030182
 20
635.475313
 42
-0.000268
  0
VERTEX
  8
0
 10
787.938406
 20
629.440249
 42
-0.000441
  0
VERTEX
  8
0
 10
809.840090
 20
624.305759
 42
-0.000025
  0
VERTEX
  8
0
 10
829.570088
 20
619.660996
 42
-0.078719
  0
VERTEX
  8
0
 10
830.042464
 20
619.467722
 42
-0.271309
  0
VERTEX
  8
0
 10
830.229852
 20
619.120967
 42
-0.006084
  0
VERTEX
  8
0
 10
830.138272
 20
617.156517
 42
-0.012020
  0
VERTEX
  8
0
 10
829.942586
 20
614.798309
 42
-0.007629
  0
VERTEX
  8
0
 10
829.606861
 20
612.062110
 42
0.000000
  0
VERTEX
  8
0
 10
828.628795
 20
604.985725
 42
0.000000
  0
VERTEX
  8
0
 10
819.564398
 20
605.533124
 42
0.005599
  0
VERTEX
  8
0
 10
812.836412
 20
605.863856
 42
0.000101
  0
VERTEX
  8
0
 10
776.884542
 20
607.220522
 42
0.000251
  0
VERTEX
  8
0
 10
734.983483
 20
608.772151
 42
0.000168
  0
VERTEX
  8
0
 10
687.000000
 20
610.508770
 42
-0.000043
  0
VERTEX
  8
0
 10
639.073594
 20
612.231315
 42
-0.000064
  0
VERTEX
  8
0
 10
597.354688
 20
613.739685
 42
-0.000024
  0
VERTEX
  8
0
 10
561.429567
 20
615.044923
 42
-0.001576
  0
VERTEX
  8
0
 10
555.250000
 20
615.289242
 42
0.000000
  0
VERTEX
  8
0
 10
547.000000
 20
615.641469
 42
0.000000
  0
VERTEX
  8
0
 10
547.000000
 20
593.820734
 42
0.000000
  0
VERTEX
  8
0
 10
547.000000
 20
572.000000
 42
0.000000
  0
VERTEX
  8
0
 10
549.750000
 20
572.003233
 42
0.008823
  0
VERTEX
  8
0
 10
551.952447
 20
572.044690
 42
0.000014
  0
VERTEX
  8
0
 10
591.054688
 20
573.472366
 42
0.000112
  0
VERTEX
  8
0
 10
634.929340
 20
575.085360
 42
0.000069
  0
VERTEX
  8
0
 10
686.500000
 20
577.000000
 42
-0.000104
  0
VERTEX
  8
0
 10
738.164339
 20
578.914470
 42
-0.000166
  0
VERTEX
  8
0
 10
782.344594
 20
580.527634
 42
-0.000031
  0
VERTEX
  8
0
 10
821.366368
 20
581.937045
 42
-0.008814
  0
VERTEX
  8
0
 10
824.609258
 20
581.996767
 42
0.000000
  0
VERTEX
  8
0
 10
828.718515
 20
582.000000
 42
0.000000
  0
VERTEX
  8
0
 10
829.665281
 20
575.005822
 42
-0.006689
  0
VERTEX
  8
0
 10
830.142033
 20
571.090517
 42
-0.047450
  0
VERTEX
  8
0
 10
830.166813
 20
569.179127
 42
-0.122613
  0
VERTEX
  8
0
 10
829.816003
 20
568.140987
 42
-0.184670
  0
VERTEX
  8
0
 10
829.056023
 20
567.580225
 42
-0.010641
  0
VERTEX
  8
0
 10
827.808995
 20
567.262893
 42
-0.000023
  0
VERTEX
  8
0
 10
808.716457
 20
562.835711
 42
-0.000158
  0
VERTEX
  8
0
 10
787.222565
 20
557.859899
 42
-0.000098
  0
VERTEX
  8
0
 10
762.000000
 20
552.034512
 42
0.000463
  0
VERTEX
  8
0
 10
736.774762
 20
546.189110
 42
0.000743
  0
VERTEX
  8
0
 10
715.271321
 20
541.151447
 42
0.000117
  0
VERTEX
  8
0
 10
696.213368
 20
536.652086
 42
0.046577
  0
VERTEX
  8
0
 10
694.902368
 20
536.210109
 42
0.267479
  0
VERTEX
  8
0
 10
694.192878
 20
535.236663
 42
0.065000
  0
VERTEX
  8
0
 10
694.239840
 20
533.169642
 42
0.025187
  0
VERTEX
  8
0
 10
695.021470
 20
529.370291
 42
0.002948
  0
VERTEX
  8
0
 10
697.240579
 20
521.000000
 42
0.001209
  0
VERTEX
  8
0
 10
698.769481
 20
515.420785
 42
0.001948
  0
VERTEX
  8
0
 10
700.101901
 20
510.676308
 42
0.000312
  0
VERTEX
  8
0
 10
701.300615
 20
506.480878
 42
0.125089
  0
VERTEX
  8
0
 10
701.454323
 20
506.217220
 42
0.277723
  0
VERTEX
  8
0
 10
701.723511
 20
506.147824
 42
0.000028
  0
VERTEX
  8
0
 10
721.150859
 20
511.935519
 42
0.000788
  0
VERTEX
  8
0
 10
742.641835
 20
518.376227
 42
0.000474
  0
VERTEX
  8
0
 10
768.116113
 20
526.080864
 42
-0.000163
  0
VERTEX
  8
0
 10
793.630290
 20
533.814922
 42
-0.000267
  0
VERTEX
  8
0
 10
815.253787
 20
540.349330
 42
-0.000021
  0
VERTEX
  8
0
 10
834.674814
 20
546.205990
 42
-0.034132
  0
VERTEX
  8
0
 10
835.364865
 20
546.363643
 42
-0.338156
  0
VERTEX
  8
0
 10
836.689754
 20
545.647071
 42
-0.012062
  0
VERTEX
  8
0
 10
839.079879
 20
539.973481
 42
-0.011964
  0
VERTEX
  8
0
 10
841.192439
 20
534.197938
 42
-0.366111
  0
VERTEX
  8
0
 10
840.669665
 20
532.870529
 42
-0.001886
  0
VERTEX
  8
0
 10
839.715801
 20
532.361824
 42
-0.000001
  0
VERTEX
  8
0
 10
803.859214
 20
513.412536
 42
-0.000011
  0
VERTEX
  8
0
 10
764.052576
 20
492.376962
 42
-0.000007
  0
VERTEX
  8
0
 10
717.000000
 20
467.514492
 42
0.000201
  0
VERTEX
  8
0
 10
669.971075
 20
442.641189
 42
0.000331
  0
VERTEX
  8
0
 10
630.240319
 20
421.573760
 42
0.000017
  0
VERTEX
  8
0
 10
594.417004
 20
402.546341
 42
0.065650
  0
VERTEX
  8
0
 10
593.669172
 20
402.013135
 42
0.342953
  0
VERTEX
  8
0
 10
593.518966
 20
401.079513
 42
0.000445
  0
VERTEX
  8
0
 10
603.044806
 20
383.730858
 42
0.001569
  0
VERTEX
  8
0
 10
612.070585
 20
367.448663
 42
0.064169
  0
VERTEX
  8
0
 10
614.472282
 20
364.205795
 42
0.345198
  0
VERTEX
  8
0
 10
614.721354
 20
364.170596
 42
0.001146
  0
VERTEX
  8
0
 10
617.572042
 20
365.828183
 42
0.005290
  0
VERTEX
  8
0
 10
620.821889
 20
367.774268
 42
0.003208
  0
VERTEX
  8
0
 10
624.627538
 20
370.141957
 42
-0.000668
  0
VERTEX
  8
0
 10
684.029267
 20
407.518585
 42
-0.000284
  0
VERTEX
  8
0
 10
763.745034
 20
457.465523
 42
-0.000004
  0
VERTEX
  8
0
 10
852.131174
 20
512.774087
 42
-0.140702
  0
VERTEX
  8
0
 10
852.918088
 20
513.000000
 42
-0.211565
  0
VERTEX
  8
0
 10
853.581835
 20
512.705988
 42
-0.006779
  0
VERTEX
  8
0
 10
855.569920
 20
510.454167
 42
-0.010708
  0
VERTEX
  8
0
 10
858.051345
 20
507.437188
 42
-0.004816
  0
VERTEX
  8
0
 10
861.185155
 20
503.376364
 42
-0.377383
  0
VERTEX
  8
0
 10
861.110875
 20
502.375650
 42
-0.000747
  0
VERTEX
  8
0
 10
848.771537
 20
490.326651
 42
-0.003635
  0
VERTEX
  8
0
 10
833.029330
 20
475.222103
 42
-0.001311
  0
VERTEX
  8
0
 10
810.433078
 20
453.966414
 42
0.000000
  0
VERTEX
  8
0
 10
758.831011
 20
405.680100
 42
0.000000
  0
VERTEX
  8
0
 10
769.934342
 20
394.590050
 42
0.000000
  0
VERTEX
  8
0
 10
781.037673
 20
383.500000
 42
0.000000
  0
VERTEX
  8
0
 10
785.768836
 20
388.747716
 42
-0.004152
  0
VERTEX
  8
0
 10
789.131395
 20
392.415695
 42
-0.000155
  0
VERTEX
  8
0
 10
801.882031
 20
406.086168
 42
-0.000281
  0
VERTEX
  8
0
 10
816.977268
 20
422.242108
 42
-0.000198
  0
VERTEX
  8
0
 10
833.978503
 20
440.403101
 42
0.000000
  0
VERTEX
  8
0
 10
877.457007
 20
486.810771
 42
0.000000
  0
VERTEX
  8
0
 10
879.978503
 20
484.978437
 42
-0.009972
  0
VERTEX
  8
0
 10
881.168026
 20
484.077240
 42
-0.004548
  0
VERTEX
  8
0
 10
882.687447
 20
482.855080
 42
-0.004501
  0
VERTEX
  8
0
 10
884.265650
 20
481.537897
 42
-0.006177
  0
VERTEX
  8
0
 10
885.659614
 20
480.323052
 42
0.000000
  0
VERTEX
  8
0
 10
888.819227
 20
477.500000
 42
0.000000
  0
VERTEX
  8
0
 10
814.003269
 20
358.528552
 42
0.000374
  0
VERTEX
  8
0
 10
771.282335
 20
290.481275
 42
0.003184
  0
VERTEX
  8
0
 10
752.323089
 20
259.799688
 42
0.001470
  0
VERTEX
  8
0
 10
740.456963
 20
240.191042
 42
0.398015
  0
VERTEX
  8
0
 10
740.843656
 20
238.431515
 42
0.018961
  0
VERTEX
  8
0
 10
745.584962
 20
235.465824
 42
0.001179
  0
VERTEX
  8
0
 10
759.971885
 20
227.253521
 42
0.000202
  0
VERTEX
  8
0
 10
775.830691
 20
218.258995
 42
0.144188
  0
VERTEX
  8
0
 10
776.759038
 20
218.042492
 42
0.261443
  0
VERTEX
  8
0
 10
777.205554
 20
218.327890
 42
0.000024
  0
VERTEX
  8
0
 10
796.376092
 20
254.218095
 42
0.000710
  0
VERTEX
  8
0
 10
817.523099
 20
293.948844
 42
0.000428
  0
VERTEX
  8
0
 10
842.500000
 20
341.133813
 42
-0.000055
  0
VERTEX
  8
0
 10
867.469363
 20
388.389607
 42
-0.000091
  0
VERTEX
  8
0
 10
888.598973
 20
428.350106
 42
-0.000005
  0
VERTEX
  8
0
 10
907.650528
 20
464.363784
 42
-0.016308
  0
VERTEX
  8
0
 10
908.156079
 20
465.248370
 42
-0.333027
  0
VERTEX
  8
0
 10
909.318707
 20
465.707388
 42
-0.009736
  0
VERTEX
  8
0
 10
914.695992
 20
464.123817
 42
-0.012897
  0
VERTEX
  8
0
 10
919.906184
 20
462.329527
 42
-0.166455
  0
VERTEX
  8
0
 10
921.473389
 20
461.043057
 42
-0.213090
  0
VERTEX
  8
0
 10
921.554315
 20
460.441271
 42
-0.000099
  0
VERTEX
  8
0
 10
915.796646
 20
440.892050
 42
-0.001358
  0
VERTEX
  8
0
 10
909.319110
 20
419.132808
 42
-0.000824
  0
VERTEX
  8
0
 10
901.543223
 20
393.422929
 42
0.000575
  0
VERTEX
  8
0
 10
889.216210
 20
352.738568
 42
0.006585
  0
VERTEX
  8
0
 10
884.592199
 20
336.650856
 42
0.008080
  0
VERTEX
  8
0
 10
882.220094
 20
327.382301
 42
0.377962
  0
VERTEX
  8
0
 10
883.065016
 20
325.791867
 42
0.020473
  0
VERTEX
  8
0
 10
884.346589
 20
325.368887
 42
0.001242
  0
VERTEX
  8
0
 10
888.237405
 20
324.269562
 42
0.001853
  0
VERTEX
  8
0
 10
892.881298
 20
322.988450
 42
0.001369
  0
VERTEX
  8
0
 10
898.029144
 20
321.603954
 42
0.005040
  0
VERTEX
  8
0
 10
904.179824
 20
320.034008
 42
0.017897
  0
VERTEX
  8
0
 10
908.164488
 20
319.209495
 42
0.019909
  0
VERTEX
  8
0
 10
910.831192
 20
318.865088
 42
0.344178
  0
VERTEX
  8
0
 10
911.521971
 20
319.312088
 42
0.025860
  0
VERTEX
  8
0
 10
911.802577
 20
320.281358
 42
0.000033
  0
VERTEX
  8
0
 10
916.374948
 20
339.807253
 42
0.000293
  0
VERTEX
  8
0
 10
921.480712
 20
361.675060
 42
0.000180
  0
VERTEX
  8
0
 10
927.464824
 20
387.414730
 42
-0.000467
  0
VERTEX
  8
0
 10
933.452782
 20
413.104192
 42
-0.000769
  0
VERTEX
  8
0
 10
938.568265
 20
434.807716
 42
-0.000045
  0
VERTEX
  8
0
 10
943.206667
 20
454.344542
 42
-0.138935
  0
VERTEX
  8
0
 10
943.453858
 20
454.787191
 42
-0.208089
  0
VERTEX
  8
0
 10
943.848701
 20
454.942647
 42
-0.005625
  0
VERTEX
  8
0
 10
945.750063
 20
454.854179
 42
-0.010786
  0
VERTEX
  8
0
 10
948.020849
 20
454.673691
 42
-0.007073
  0
VERTEX
  8
0
 10
950.627956
 20
454.372462
 42
0.000000
  0
VERTEX
  8
0
 10
957.344321
 20
453.500000
 42
0.000000
  0
VERTEX
  8
0
 10
957.140997
 20
446.000000
 42
-0.002359
  0
VERTEX
  8
0
 10
956.358583
 20
421.419843
 42
-0.000061
  0
VERTEX
  8
0
 10
952.323158
 20
311.391399
 42
-0.000034
  0
VERTEX
  8
0
 10
948.117846
 20
197.325473
 42
-0.004460
  0
VERTEX
  8
0
 10
947.472181
 20
183.250000
 42
0.000000
  0
VERTEX
  8
0
 10
946.855518
 20
172.000000
 42
0.000000
  0
VERTEX
  8
0
 10
969.000000
 20
172.000000
 42
0.000000
  0
VERTEX
  8
0
 10
991.144482
 20
172.000000
 42
0.000000
  0
VERTEX
  8
0
 10
990.527819
 20
183.250000
 42
-0.004460
  0
VERTEX
  8
0
 10
989.882154
 20
197.325473
 42
-0.000034
  0
VERTEX
  8
0
 10
985.676842
 20
311.391399
 42
-0.000061
  0
VERTEX
  8
0
 10
981.641417
 20
421.419843
 42
-0.002359
  0
VERTEX
  8
0
 10
980.859003
 20
446.000000
 42
0.000000
  0
VERTEX
  8
0
 10
980.655679
 20
453.500000
 42
0.000000
  0
VERTEX
  8
0
 10
987.372044
 20
454.372462
 42
-0.007073
  0
VERTEX
  8
0
 10
989.979151
 20
454.673691
 42
-0.010786
  0
VERTEX
  8
0
 10
992.249937
 20
454.854179
 42
-0.005625
  0
VERTEX
  8
0
 10
994.151299
 20
454.942647
 42
-0.208089
  0
VERTEX
  8
0
 10
994.546142
 20
454.787191
 42
-0.138935
  0
VERTEX
  8
0
 10
994.793333
 20
454.344542
 42
-0.000045
  0
VERTEX
  8
0
 10
999.431735
 20
434.807716
 42
-0.000769
  0
VERTEX
  8
0
 10
1004.547218
 20
413.104192
 42
-0.000467
  0
VERTEX
  8
0
 10
1010.535176
 20
387.414730
 42
0.000179
  0
VERTEX
  8
0
 10
1016.519114
 20
361.675503
 42
0.000291
  0
VERTEX
  8
0
 10
1021.624323
 20
339.809152
 42
0.000032
  0
VERTEX
  8
0
 10
1026.196539
 20
320.282659
 42
0.025818
  0
VERTEX
  8
0
 10
1026.475548
 20
319.318554
 42
0.351589
  0
VERTEX
  8
0
 10
1027.178794
 20
318.876387
 42
0.015508
  0
VERTEX
  8
0
 10
1030.234530
 20
319.325414
 42
0.015794
  0
VERTEX
  8
0
 10
1034.711581
 20
320.272654
 42
0.004577
  0
VERTEX
  8
0
 10
1041.554943
 20
322.014522
 42
0.001357
  0
VERTEX
  8
0
 10
1047.199898
 20
323.522901
 42
0.002184
  0
VERTEX
  8
0
 10
1052.000849
 20
324.842254
 42
0.000366
  0
VERTEX
  8
0
 10
1056.239769
 20
326.030444
 42
0.134849
  0
VERTEX
  8
0
 10
1056.514591
 20
326.195968
 42
0.268833
  0
VERTEX
  8
0
 10
1056.583860
 20
326.484817
 42
0.000031
  0
VERTEX
  8
0
 10
1050.735545
 20
346.086948
 42
0.000812
  0
VERTEX
  8
0
 10
1044.224431
 20
367.777198
 42
0.000489
  0
VERTEX
  8
0
 10
1036.434962
 20
393.483005
 42
-0.001153
  0
VERTEX
  8
0
 10
1028.676435
 20
419.209756
 42
-0.001907
  0
VERTEX
  8
0
 10
1022.260007
 20
440.967041
 42
-0.000160
  0
VERTEX
  8
0
 10
1016.598524
 20
460.461097
 42
-0.296626
  0
VERTEX
  8
0
 10
1016.783005
 20
461.069544
 42
-0.073024
  0
VERTEX
  8
0
 10
1018.121445
 20
461.897342
 42
-0.003921
  0
VERTEX
  8
0
 10
1022.726780
 20
463.845883
 42
-0.003245
  0
VERTEX
  8
0
 10
1027.430677
 20
465.757112
 42
-0.095146
  0
VERTEX
  8
0
 10
1028.695515
 20
466.000000
 42
-0.276608
  0
VERTEX
  8
0
 10
1029.192085
 20
465.702529
 42
-0.000030
  0
VERTEX
  8
0
 10
1048.515644
 20
429.587257
 42
-0.000809
  0
VERTEX
  8
0
 10
1069.839374
 20
389.572359
 42
-0.000487
  0
VERTEX
  8
0
 10
1095.010133
 20
342.041725
 42
0.000453
  0
VERTEX
  8
0
 10
1120.178251
 20
294.508155
 42
0.000752
  0
VERTEX
  8
0
 10
1141.493959
 20
254.483936
 42
0.000027
  0
VERTEX
  8
0
 10
1160.813461
 20
218.343736
 42
0.262532
  0
VERTEX
  8
0
 10
1161.288452
 20
218.041725
 42
0.139291
  0
VERTEX
  8
0
 10
1161.867424
 20
218.173586
 42
0.000663
  0
VERTEX
  8
0
 10
1167.273003
 20
221.141131
 42
0.003002
  0
VERTEX
  8
0
 10
1173.414239
 20
224.571352
 42
0.001886
  0
VERTEX
  8
0
 10
1180.554205
 20
228.651486
 42
0.001892
  0
VERTEX
  8
0
 10
1192.256921
 20
235.456786
 42
0.027435
  0
VERTEX
  8
0
 10
1196.250561
 20
238.103964
 42
0.108857
  0
VERTEX
  8
0
 10
1197.733326
 20
239.816106
 42
0.274597
  0
VERTEX
  8
0
 10
1197.671282
 20
241.401486
 42
-0.003536
  0
VERTEX
  8
0
 10
1196.592072
 20
243.092544
 42
-0.000005
  0
VERTEX
  8
0
 10
1176.791698
 20
274.608561
 42
-0.000043
  0
VERTEX
  8
0
 10
1154.596607
 20
309.943766
 42
-0.000027
  0
VERTEX
  8
0
 10
1128.501949
 20
351.500000
 42
0.000004
  0
VERTEX
  8
0
 10
1102.098202
 20
393.552757
 42
0.000005
  0
VERTEX
  8
0
 10
1078.908183
 20
430.485640
 42
0.000002
  0
VERTEX
  8
0
 10
1059.122079
 20
461.996324
 42
0.000100
  0
VERTEX
  8
0
 10
1054.893409
 20
468.727710
 42
0.000000
  0
VERTEX
  8
0
 10
1049.093978
 20
477.955420
 42
0.000000
  0
VERTEX
  8
0
 10
1054.830865
 20
482.369854
 42
0.000000
  0
VERTEX
  8
0
 10
1060.567752
 20
486.784287
 42
0.000000
  0
VERTEX
  8
0
 10
1104.033876
 20
440.389860
 42
-0.000198
  0
VERTEX
  8
0
 10
1121.030366
 20
422.233941
 42
-0.000281
  0
VERTEX
  8
0
 10
1136.121605
 20
406.082279
 42
-0.000155
  0
VERTEX
  8
0
 10
1148.868747
 20
392.415541
 42
-0.004152
  0
VERTEX
  8
0
 10
1152.231164
 20
388.747716
 42
0.000000
  0
VERTEX
  8
0
 10
1156.962327
 20
383.500000
 42
0.000000
  0
VERTEX
  8
0
 10
1168.079758
 20
394.604150
 42
0.000000
  0
VERTEX
  8
0
 10
1179.197190
 20
405.708301
 42
0.000000
  0
VERTEX
  8
0
 10
1127.595399
 20
453.997836
 42
-0.001340
  0
VERTEX
  8
0
 10
1105.300844
 20
474.973651
 42
-0.003527
  0
VERTEX
  8
0
 10
1089.469291
 20
490.161941
 42
-0.000678
  0
VERTEX
  8
0
 10
1076.901879
 20
502.423324
 42
-0.377334
  0
VERTEX
  8
0
 10
1076.829221
 20
503.393686
 42
-0.005076
  0
VERTEX
  8
0
 10
1079.970985
 20
507.466607
 42
-0.011439
  0
VERTEX
  8
0
 10
1082.452765
 20
510.473160
 42
-0.007745
  0
VERTEX
  8
0
 10
1084.431412
 20
512.691100
 42
-0.209713
  0
VERTEX
  8
0
 10
1085.135506
 20
513.000000
 42
-0.140257
  0
VERTEX
  8
0
 10
1085.741169
 20
512.826694
 42
-0.000017
  0
VERTEX
  8
0
 10
1120.098592
 20
491.409312
 42
-0.000478
  0
VERTEX
  8
0
 10
1158.077501
 20
467.682172
 42
-0.000288
  0
VERTEX
  8
0
 10
1203.034281
 20
439.499787
 42
0.000092
  0
VERTEX
  8
0
 10
1248.054935
 20
411.252767
 42
0.000151
  0
VERTEX
  8
0
 10
1286.246431
 20
387.316414
 42
0.000013
  0
VERTEX
  8
0
 10
1320.493328
 20
365.867981
 42
0.017027
  0
VERTEX
  8
0
 10
1321.874201
 20
365.067326
 42
0.328411
  0
VERTEX
  8
0
 10
1323.231620
 20
365.263089
 42
0.043949
  0
VERTEX
  8
0
 10
1325.221191
 20
367.600900
 42
0.020235
  0
VERTEX
  8
0
 10
1328.297427
 20
372.329253
 42
0.002640
  0
VERTEX
  8
0
 10
1334.383692
 20
382.691909
 42
0.004845
  0
VERTEX
  8
0
 10
1338.452496
 20
389.863262
 42
0.007916
  0
VERTEX
  8
0
 10
1341.745758
 20
396.029167
 42
0.002564
  0
VERTEX
  8
0
 10
1344.445235
 20
401.348707
 42
0.329488
  0
VERTEX
  8
0
 10
1344.325630
 20
402.036811
 42
0.068810
  0
VERTEX
  8
0
 10
1343.284534
 20
402.787507
 42
0.000003
  0
VERTEX
  8
0
 10
1228.737041
 20
463.490972
 42
0.000076
  0
VERTEX
  8
0
 10
1123.902989
 20
519.025675
 42
0.002771
  0
VERTEX
  8
0
 10
1099.824936
 20
531.605741
 42
0.000000
  0
VERTEX
  8
0
 10
1096.149871
 20
533.500000
 42
0.000000
  0
VERTEX
  8
0
 10
1098.938130
 20
540.000000
 42
-0.012888
  0
VERTEX
  8
0
 10
1100.312065
 20
542.987936
 42
-0.039719
  0
VERTEX
  8
0
 10
1101.447398
 20
544.898533
 42
-0.064446
  0
VERTEX
  8
0
 10
1102.438801
 20
545.975020
 42
-0.222176
  0
VERTEX
  8
0
 10
1103.332331
 20
546.213251
 42
-0.028880
  0
VERTEX
  8
0
 10
1104.595432
 20
545.911586
 42
-0.000061
  0
VERTEX
  8
0
 10
1123.762445
 20
540.143798
 42
-0.000423
  0
VERTEX
  8
0
 10
1145.328097
 20
533.631426
 42
-0.000263
  0
VERTEX
  8
0
 10
1170.626506
 20
525.953954
 42
0.000440
  0
VERTEX
  8
0
 10
1195.832403
 20
518.314285
 42
0.000730
  0
VERTEX
  8
0
 10
1217.093557
 20
511.924511
 42
0.000024
  0
VERTEX
  8
0
 10
1236.322492
 20
506.177127
 42
0.278181
  0
VERTEX
  8
0
 10
1236.569160
 20
506.240703
 42
0.125204
  0
VERTEX
  8
0
 10
1236.710195
 20
506.483191
 42
0.000263
  0
VERTEX
  8
0
 10
1237.904997
 20
510.683207
 42
0.001788
  0
VERTEX
  8
0
 10
1239.232189
 20
515.422385
 42
0.001106
  0
VERTEX
  8
0
 10
1240.759421
 20
521.000000
 42
0.002946
  0
VERTEX
  8
0
 10
1242.980897
 20
529.379068
 42
0.025240
  0
VERTEX
  8
0
 10
1243.761997
 20
533.177731
 42
0.065199
  0
VERTEX
  8
0
 10
1243.807754
 20
535.246488
 42
0.264313
  0
VERTEX
  8
0
 10
1243.097632
 20
536.230934
 42
0.048962
  0
VERTEX
  8
0
 10
1241.784153
 20
536.682648
 42
0.000126
  0
VERTEX
  8
0
 10
1222.875554
 20
541.172622
 42
0.000791
  0
VERTEX
  8
0
 10
1201.533503
 20
546.199132
 42
0.000493
  0
VERTEX
  8
0
 10
1176.500000
 20
552.027286
 42
-0.000052
  0
VERTEX
  8
0
 10
1151.429145
 20
557.840867
 42
-0.000083
  0
VERTEX
  8
0
 10
1129.966434
 20
562.823903
 42
-0.000016
  0
VERTEX
  8
0
 10
1111.047866
 20
567.220229
 42
-0.004093
  0
VERTEX
  8
0
 10
1109.364457
 20
567.626033
 42
-0.056025
  0
VERTEX
  8
0
 10
1108.412330
 20
567.980797
 42
-0.129433
  0
VERTEX
  8
0
 10
1107.845818
 20
568.483749
 42
-0.140597
  0
VERTEX
  8
0
 10
1107.627370
 20
569.170514
 42
-0.071214
  0
VERTEX
  8
0
 10
1107.731088
 20
570.079681
 42
-0.336954
  0
VERTEX
  8
0
 10
1109.459192
 20
571.434790
 42
-0.001405
  0
VERTEX
  8
0
 10
1135.081118
 20
571.747036
 42
-0.002213
  0
VERTEX
  8
0
 10
1179.125498
 20
571.965048
 42
-0.000131
  0
VERTEX
  8
0
 10
1312.544658
 20
572.000000
 42
0.000000
  0
VERTEX
  8
0
 10
1516.856054
 20
572.000000
 42
0.000000
  0
VERTEX
  8
0
 10
1639.857357
 20
356.750000
 42
0.000000
  0
VERTEX
  8
0
 10
1762.858661
 20
141.500000
 42
0.000000
  0
VERTEX
  8
0
 10
1365.929331
 20
141.248753
 42
-0.000100
  0
VERTEX
  8
0
 10
1185.233474
 20
141.170419
 42
-0.000059
  0
VERTEX
  8
0
 10
968.992130
 20
141.145114
 42
-0.000059
  0
VERTEX
  8
0
 10
752.748240
 20
141.170419
 42
-0.000100
  0
VERTEX
  8
0
 10
572.043877
 20
141.248753
 42
0.000000
  0
VERTEX
  8
0
 10
175.087755
 20
141.500000
 42
0.000000
  0
VERTEX
  8
0
 10
571.793877
 20
835.714750
 42
-0.000051
  0
VERTEX
  8
0
 10
723.946683
 20
1101.910749
 42
-0.000085
  0
VERTEX
  8
0
 10
852.114451
 20
1326.001901
 42
-0.000000
  0
VERTEX
  8
0
 10
968.691582
 20
1529.746588
 42
-0.272676
  0
VERTEX
  8
0
 10
969.000000
 20
1529.922636
 42
-0.265242
  0
VERTEX
  8
0
 10
969.308325
 20
1529.741041
 42
-0.000001
  0
VERTEX
  8
0
 10
1045.948438
 20
1395.879990
 42
-0.000128
  0
VERTEX
  8
0
 10
1130.229715
 20
1248.584776
 42
-0.000077
  0
SEQEND
  0
ENDSEC
  0
EOF
